<svg width="22" height="22" viewBox="0 0 22 22" fill="none" xmlns="http://www.w3.org/2000/svg">
    <path fill-rule="evenodd" clip-rule="evenodd" d="M20.5932 16.3824L21.967 20.9882C22.0441 21.2455 21.9835 21.5248 21.8072 21.7278C21.631 21.9316 21.3635 22.0307 21.0976 21.9913L15.2911 21.1298C13.9732 21.6892 12.5224 22 11 22C4.92918 22 0 17.0708 0 11C0 4.92919 4.92918 0 11 0C17.0708 0 22 4.92919 22 11C22 12.9544 21.4886 14.7907 20.5932 16.3824ZM15.7356 9.44139C16.6042 9.44139 17.3092 10.1463 17.3092 11.0149C17.3092 11.8836 16.6042 12.5885 15.7356 12.5885C14.867 12.5885 14.1621 11.8836 14.1621 11.0149C14.1621 10.1463 14.867 9.44139 15.7356 9.44139ZM11.0149 9.44139C11.8836 9.44139 12.5885 10.1463 12.5885 11.0149C12.5885 11.8836 11.8836 12.5885 11.0149 12.5885C10.1463 12.5885 9.44138 11.8836 9.44138 11.0149C9.44138 10.1463 10.1463 9.44139 11.0149 9.44139ZM6.29426 9.44139C7.16286 9.44139 7.86782 10.1463 7.86782 11.0149C7.86782 11.8836 7.16286 12.5885 6.29426 12.5885C5.42565 12.5885 4.72069 11.8836 4.72069 11.0149C4.72069 10.1463 5.42565 9.44139 6.29426 9.44139Z" fill="#F5F5F5"/>
</svg>