<svg width="13" height="13" viewBox="0 0 13 13" fill="none" xmlns="http://www.w3.org/2000/svg">
    <path d="M6.50043 13H0.650432C0.521894 13 0.39625 12.9618 0.289384 12.8904C0.182518 12.819 0.099227 12.7175 0.0500415 12.5987C0.000855983 12.48 -0.012016 12.3493 0.0130529 12.2232C0.0381218 12.0972 0.100006 11.9814 0.190882 11.8904L1.46748 10.6139C0.533399 9.47118 0.0159958 8.04464 0.000364823 6.56884C-0.0152662 5.09305 0.471806 3.65587 1.38148 2.49367C2.29115 1.33147 3.56925 0.513443 5.00559 0.174126C6.44193 -0.16519 7.95099 -0.00559414 9.28458 0.626668C10.6182 1.25893 11.6969 2.32621 12.3433 3.65298C12.9898 4.97976 13.1654 6.48703 12.8414 7.9269C12.5175 9.36678 11.7131 10.6535 10.5607 11.5755C9.40821 12.4975 7.97631 12.9999 6.50043 13Z" fill="#848484"/>
</svg>
