<svg width="406" height="428" viewBox="0 0 406 428" fill="none" xmlns="http://www.w3.org/2000/svg">
    <path d="M142.067 401.352V335.925C142.067 319.346 155.548 305.876 172.247 305.772H233.563C250.337 305.772 263.934 319.272 263.934 335.925V401.162C263.934 415.542 275.62 427.228 290.103 427.333H331.936C351.473 427.383 370.227 419.713 384.06 406.015C397.893 392.317 405.667 373.717 405.667 354.32V168.471C405.667 152.803 398.671 137.94 386.566 127.888L244.451 15.0509C219.609 -4.68555 184.129 -4.04799 160.022 16.568L20.9636 127.888C8.28578 137.644 0.708433 152.551 0.333984 168.471V354.131C0.333984 394.559 33.3448 427.333 74.0657 427.333H114.943C121.916 427.383 128.622 424.668 133.571 419.79C138.52 414.912 141.303 408.275 141.303 401.352H142.067Z" fill="#F5F5F5"/>
</svg>
