<svg width="20" height="25" viewBox="0 0 20 25" fill="none" xmlns="http://www.w3.org/2000/svg">
    <path d="M9.72625 25C10.4359 25 11.0806 24.7078 11.5461 24.2378C12.3233 23.453 11.3949 22.4359 10.2904 22.4359H9.16215C8.05758 22.4359 7.12663 23.4537 7.90312 24.2393C8.36683 24.7084 9.0109 25 9.72625 25ZM18.0043 17.8935C17.6293 17.5184 17.4186 17.0097 17.4186 16.4793V10.8974C17.4186 7.27093 15.6336 4.18863 12.4848 3.04451C12.0044 2.86998 11.6493 2.43414 11.6493 1.92308C11.6493 0.858974 10.7904 0 9.72625 0C8.66215 0 7.80318 0.858974 7.80318 1.92308C7.80318 2.43405 7.44795 2.86977 6.96742 3.04348C3.8089 4.18532 2.03395 7.25826 2.03395 10.8974V16.4793C2.03395 17.0097 1.82323 17.5184 1.44816 17.8935L0.380099 18.9615C-0.427593 19.7692 0.136509 21.1538 1.27753 21.1538H18.1622C19.3032 21.1538 19.8801 19.7692 19.0724 18.9615L18.0043 17.8935Z" fill="#F5F5F5"/>
</svg>