<svg width="19" height="20" viewBox="0 0 19 20" fill="none" xmlns="http://www.w3.org/2000/svg">
    <path d="M5.9609 20C7.55441 20 9.05939 19.3803 10.2103 18.2589L13.9284 14.5408C14.194 14.2752 14.194 13.803 13.9284 13.5374C13.6629 13.2719 13.1907 13.2719 12.9251 13.5374L9.20693 17.2261C8.35116 18.0819 7.20029 18.554 5.9609 18.554C4.7215 18.554 3.60015 18.0819 2.71487 17.2261C1.82958 16.3703 1.38694 15.2195 1.38694 13.9801C1.38694 12.7407 1.85909 11.6193 2.71487 10.734L11.125 2.32387C11.7447 1.70417 12.5415 1.37956 13.4268 1.37956C14.2826 1.37956 15.1088 1.70417 15.7285 2.32387C16.3482 2.94356 16.6728 3.74032 16.6728 4.6256C16.6728 5.48137 16.3482 6.30763 15.7285 6.92733L7.28882 15.367C6.55109 16.1048 5.31169 16.1048 4.57396 15.367C4.21985 15.0129 4.01328 14.5112 4.01328 14.0096C4.01328 13.5079 4.21985 13.0063 4.57396 12.6522L8.32165 8.90446C8.58724 8.63888 8.58724 8.16673 8.32165 7.90114C8.05607 7.63556 7.58392 7.63556 7.31833 7.90114L3.60015 11.6488C2.98045 12.2685 2.62634 13.1243 2.62634 14.0096C2.62634 14.8949 2.98045 15.7506 3.60015 16.3703C4.89856 17.6688 7.02324 17.6688 8.32165 16.3703L16.7318 7.96016C17.6171 7.07488 18.0893 5.92401 18.0893 4.65511C18.0893 3.3862 17.6171 2.23534 16.7318 1.35006C14.9318 -0.450018 11.9513 -0.450018 10.1512 1.35006L1.74105 9.76024C0.619697 10.8816 0 12.3866 0 14.0096C0 15.6031 0.619697 17.1081 1.74105 18.2589C2.86241 19.3803 4.36739 20 5.9609 20Z" fill="#F5F5F5"/>
</svg>