<svg width="14" height="13" viewBox="0 0 14 13" fill="none" xmlns="http://www.w3.org/2000/svg">
    <path d="M13.6257 0.343549C13.4404 0.174126 13.2028 0.0606377 12.9449 0.0183239C12.6871 -0.0239899 12.4212 0.00689737 12.1831 0.106838L0.768729 4.90435C0.524496 5.00706 0.320356 5.17554 0.183603 5.38726C0.0468508 5.59897 -0.0159962 5.84384 0.00346515 6.08912C0.0229265 6.33439 0.123769 6.56839 0.292509 6.75982C0.461249 6.95125 0.689844 7.09099 0.947731 7.16035L4.96708 8.24198L5.8906 12.054C5.94833 12.3007 6.08992 12.5243 6.29509 12.6928C6.50026 12.8613 6.75847 12.9661 7.03272 12.9921C7.08394 12.9971 7.1354 12.9997 7.1869 12.9999C7.43633 13.0004 7.68066 12.9353 7.89081 12.8124C8.10097 12.6895 8.26811 12.514 8.37233 12.3066L13.8775 1.67396C13.99 1.45539 14.0262 1.21043 13.9811 0.972384C13.9361 0.73434 13.812 0.514773 13.6257 0.343549ZM12.9234 1.26141L7.41818 11.8931C7.39466 11.9386 7.35619 11.9763 7.30814 12.0008C7.2601 12.0253 7.20489 12.0355 7.15021 12.0299C7.09554 12.0243 7.04414 12.0032 7.0032 11.9696C6.96225 11.936 6.93381 11.8915 6.92183 11.8424L5.99198 8.01396L8.40031 5.81013C8.4965 5.71902 8.54972 5.59699 8.54852 5.47033C8.54731 5.34367 8.49178 5.2225 8.39388 5.13293C8.29598 5.04337 8.16354 4.99256 8.0251 4.99146C7.88665 4.99036 7.75327 5.03905 7.65368 5.12705L5.26172 7.3159L1.24395 6.23476C1.19221 6.221 1.1463 6.19308 1.1124 6.15475C1.07851 6.11642 1.05824 6.06952 1.05434 6.02034C1.05043 5.97117 1.06306 5.92208 1.09054 5.87966C1.11801 5.83725 1.15902 5.80355 1.20805 5.78308L12.624 0.984602C12.6537 0.97224 12.6859 0.965817 12.7185 0.965761C12.7779 0.965924 12.8348 0.987441 12.8769 1.02566C12.9102 1.05576 12.9324 1.09449 12.9408 1.13659C12.9491 1.17868 12.943 1.22258 12.9234 1.26141Z" fill="#F5F5F5"/>
</svg>
