<svg width="342" height="428" viewBox="0 0 342 428" fill="none" xmlns="http://www.w3.org/2000/svg">
    <path d="M125.101 289.729C155.814 287.254 186.668 287.254 217.381 289.729C234.106 290.704 250.752 292.796 267.213 295.993C302.833 303.205 326.087 314.973 336.053 333.952C343.539 348.765 343.539 366.399 336.053 381.212C326.087 400.192 303.755 412.719 266.843 419.172C250.395 422.489 233.746 424.645 217.012 425.625C201.509 427.333 186.006 427.333 170.318 427.333H142.081C136.175 426.574 130.453 426.194 124.917 426.194C108.182 425.334 91.529 423.24 75.0854 419.931C39.4653 413.098 16.2107 400.951 6.24449 381.971C2.39716 374.619 0.368845 366.406 0.336208 358.057C0.258372 349.657 2.22534 341.37 6.05993 333.952C15.8416 314.973 39.0962 302.636 75.0854 295.993C91.6015 292.751 108.311 290.658 125.101 289.729ZM171.057 0.666504C232.928 0.666504 283.085 52.2467 283.085 115.874C283.085 179.501 232.928 231.082 171.057 231.082C109.185 231.082 59.0287 179.501 59.0287 115.874C59.0287 52.2467 109.185 0.666504 171.057 0.666504Z" fill="#F5F5F5"/>
</svg>
