<svg width="16" height="13" viewBox="0 0 16 13" fill="none" xmlns="http://www.w3.org/2000/svg">
    <path d="M14.9298 5.7557L8.6066 0.13506C8.5308 0.0668496 8.43682 0.0221321 8.33607 0.00634496C8.23533 -0.00944214 8.13217 0.00438136 8.03913 0.0461347C7.9461 0.087888 7.8672 0.155772 7.81203 0.241533C7.75687 0.327294 7.7278 0.427236 7.72838 0.529208V2.81259H7.55273C5.55031 2.81482 3.63054 3.61127 2.21461 5.0272C0.79868 6.44313 0.00223169 8.3629 1.54989e-07 10.3653V12.4731C-9.09606e-05 12.5918 0.0399946 12.707 0.113731 12.8C0.187467 12.893 0.290513 12.9583 0.406091 12.9852C0.445635 12.995 0.486208 12.9999 0.526935 13C0.624845 13 0.720817 12.9727 0.804088 12.9212C0.887358 12.8697 0.954633 12.796 0.998366 12.7084L1.16418 12.3761C1.70083 11.2941 2.52989 10.3842 3.55735 9.74936C4.58481 9.11455 5.76958 8.7803 6.97732 8.78452H7.72838V11.7705C7.72805 11.8722 7.7572 11.9718 7.8123 12.0573C7.8674 12.1428 7.94609 12.2105 8.03885 12.2522C8.13162 12.2939 8.23447 12.3078 8.33499 12.2923C8.4355 12.2767 8.52935 12.2324 8.6052 12.1646L14.9284 6.54399C14.9841 6.49455 15.0287 6.43386 15.0593 6.36592C15.0898 6.29798 15.1056 6.22434 15.1056 6.14985C15.1056 6.07536 15.0898 6.00171 15.0593 5.93377C15.0287 5.86583 14.9841 5.80514 14.9284 5.7557H14.9298Z" fill="#848484"/>
</svg>